<?xml version="1.0" encoding="iso-8859-1"?>
<!-- Uploaded to: SVG Repo, www.svgrepo.com, Generator: SVG Repo Mixer Tools -->
<svg fill="#000000" height="800px" width="800px" version="1.1" id="Layer_1" xmlns="http://www.w3.org/2000/svg" xmlns:xlink="http://www.w3.org/1999/xlink" 
	 viewBox="0 0 512 512" xml:space="preserve">
<g>
	<g>
		<path d="M256,0C114.837,0,0,114.837,0,256s114.837,256,256,256s256-114.837,256-256S397.163,0,256,0z M213.333,341.333
			c0,11.776-9.536,21.333-21.333,21.333s-21.333-9.557-21.333-21.333V222.165l-6.251,6.251c-4.16,4.16-9.621,6.251-15.083,6.251
			c-5.461,0-10.923-2.091-15.083-6.251c-8.341-8.341-8.341-21.824,0-30.165l42.645-42.645c1.963-1.984,4.331-3.541,6.955-4.629
			c5.205-2.155,11.093-2.155,16.299,0c5.227,2.155,9.387,6.315,11.541,11.541c1.088,2.603,1.643,5.376,1.643,8.149V341.333z
			 M362.667,234.667c11.797,0,21.333,9.557,21.333,21.333v85.333c0,11.776-9.536,21.333-21.333,21.333h-85.333
			c-11.797,0-21.333-9.557-21.333-21.333c0-11.776,9.536-21.333,21.333-21.333h64v-42.667h-64C265.536,277.333,256,267.776,256,256
			v-85.333c0-11.776,9.536-21.333,21.333-21.333h85.333c11.797,0,21.333,9.557,21.333,21.333S374.464,192,362.667,192h-64v42.667
			H362.667z"/>
	</g>
</g>
</svg>