<?xml version="1.0" encoding="iso-8859-1"?>
<!-- Uploaded to: SVG Repo, www.svgrepo.com, Generator: SVG Repo Mixer Tools -->
<!DOCTYPE svg PUBLIC "-//W3C//DTD SVG 1.1//EN" "http://www.w3.org/Graphics/SVG/1.1/DTD/svg11.dtd">
<svg fill="#000000" version="1.1" id="Capa_1" xmlns="http://www.w3.org/2000/svg" xmlns:xlink="http://www.w3.org/1999/xlink" 
	 width="800px" height="800px" viewBox="0 0 83.666 83.666"
	 xml:space="preserve">
<g>
	<path d="M41.833,0C18.729,0,0,18.729,0,41.833c0,23.104,18.729,41.833,41.833,41.833c23.104,0,41.833-18.729,41.833-41.833
		C83.666,18.729,64.938,0,41.833,0z M48.9,6.325c0.127,0.022,6.521,1.226,13.272,5.571l-3.569,4.909
		c-3.6-2.618-7.229-4.089-10.703-4.793L48.9,6.325z M36.147,5.854l0.829,5.519c-5.058,0.763-9.073,2.637-12.255,5.01l-3.324-4.671
		C21.509,11.634,27.517,7.463,36.147,5.854z M11.503,61.02c-0.071-0.102-3.5-5.047-5.341-12.396l5.944-0.896
		c0.61,4.055,1.941,7.432,3.665,10.254L11.503,61.02z M11.794,34.577l-4.732-0.83c0.023-0.125,1.186-6.327,5.372-12.963l4.163,3.03
		C13.964,27.435,12.492,31.085,11.794,34.577z M34.478,77.645c-0.126-0.022-6.358-1.19-13.013-5.401l3.612-4.964
		c3.494,2.541,7.014,3.996,10.396,4.723L34.478,77.645z M49.396,76.712l-0.767-5.103c5.942-1.525,9.935-4.293,10.015-4.352
		l3.463,4.868C58.624,74.284,54.439,75.952,49.396,76.712z M59.359,59.614c-9.819,9.68-25.627,9.565-35.307-0.253
		c-9.68-9.822-9.566-25.63,0.256-35.311c9.818-9.68,25.625-9.564,35.306,0.257C69.293,34.126,69.178,49.936,59.359,59.614z
		 M71.521,20.594c2.805,3.843,5.013,8.67,5.922,14.717l-5.529,0.831c-1.292-7.222-4.798-12.278-4.863-12.369L71.521,20.594z
		 M67.762,57.843c3.485-5.491,4.455-10.653,4.473-10.756l5.738,1.011c-0.871,4.198-2.664,8.582-5.828,12.936L67.762,57.843z
		 M34.46,44.843c0,4.056-3.286,7.115-7.643,7.115c-2.216,0-4.011-0.647-4.954-1.256l-0.815-0.524L22.416,46l1.347,0.798
		c0.485,0.288,1.669,0.775,3.029,0.775c1.353,0,2.81-0.771,2.81-2.468c-0.007-0.619-0.031-2.547-3.68-2.547
		c-0.837,0-1.506,0.086-2.099,0.159l-1.619,0.206L22.3,41.32l1.256-9.323h10.563v4.463h-6.722l-0.269,1.793
		c1.61,0.012,3.085,0.393,4.269,1.104C33.333,40.458,34.46,42.463,34.46,44.843z M55.449,31.707c-3.506,0-6.014,2.554-6.883,6.738
		c-0.762-4.274-3.135-6.738-6.667-6.738c-4.388,0-7.222,3.995-7.222,10.189c0.071,7.416,3.626,10.062,6.932,10.062
		c1.859,0,5.82-0.756,6.922-6.812c0.928,4.947,3.862,6.812,6.626,6.812c2.17,0,7.22-1.006,7.22-10.31
		C62.379,35.425,59.788,31.707,55.449,31.707z M41.741,47.652c-1.333,0-2.229-2.307-2.229-5.741c0-4.053,1.169-5.898,2.255-5.898
		c2.012,0,2.229,4.015,2.229,5.742C43.996,43.139,43.833,47.652,41.741,47.652z M55.29,47.652c-1.335,0-2.229-2.307-2.229-5.741
		c0-4.053,1.168-5.898,2.256-5.898c2.012,0,2.229,4.015,2.229,5.742C57.545,43.139,57.382,47.652,55.29,47.652z"/>
</g>
</svg>